<svg width="135" height="32" viewBox="0 0 135 32" fill="none" xmlns="http://www.w3.org/2000/svg">
<path d="M0.5 27.6939V9.193H5.51396V27.6939H0.5ZM12.5565 27.6939V16.7772C12.5565 15.7047 12.212 14.8748 11.523 14.2875C10.8596 13.6746 10.0303 13.3682 9.03521 13.3682C8.37178 13.3682 7.77215 13.5086 7.23631 13.7895C6.70047 14.0449 6.27945 14.4279 5.97325 14.9386C5.66705 15.4493 5.51396 16.0622 5.51396 16.7772L3.56196 15.8196C3.56196 14.3896 3.86815 13.1511 4.48055 12.1041C5.11845 11.0571 5.97325 10.2527 7.04494 9.69095C8.11662 9.10362 9.32865 8.80996 10.681 8.80996C11.9568 8.80996 13.1178 9.10362 14.164 9.69095C15.2102 10.2527 16.0394 11.0571 16.6518 12.1041C17.2642 13.1256 17.5704 14.3641 17.5704 15.8196V27.6939H12.5565ZM24.6129 27.6939V16.7772C24.6129 15.7047 24.2685 14.8748 23.5795 14.2875C22.9161 13.6746 22.0868 13.3682 21.0917 13.3682C20.4538 13.3682 19.8541 13.5086 19.2928 13.7895C18.7569 14.0449 18.3359 14.4279 18.0297 14.9386C17.7235 15.4493 17.5704 16.0622 17.5704 16.7772L14.6998 16.0878C14.8019 14.6067 15.1974 13.3298 15.8863 12.2573C16.5753 11.1593 17.4811 10.3166 18.6038 9.72926C19.7265 9.11639 20.9768 8.80996 22.3547 8.80996C23.7326 8.80996 24.9701 9.10362 26.0673 9.69095C27.1646 10.2527 28.0321 11.0699 28.67 12.1424C29.3079 13.2149 29.6269 14.4917 29.6269 15.9728V27.6939H24.6129Z" fill="#FCFCFD"/>
<path d="M42.5326 28.077C40.5933 28.077 38.871 27.6684 37.3655 26.8512C35.86 26.0085 34.6608 24.8594 33.7677 23.4038C32.9001 21.9483 32.4664 20.2884 32.4664 18.4243C32.4664 16.5857 32.8874 14.9514 33.7294 13.5214C34.597 12.0658 35.7707 10.9167 37.2507 10.074C38.7306 9.20577 40.3764 8.77166 42.1881 8.77166C43.9742 8.77166 45.5435 9.18023 46.8958 9.99739C48.2737 10.789 49.3454 11.8871 50.1109 13.2915C50.9019 14.6705 51.2974 16.241 51.2974 18.003C51.2974 18.3349 51.2719 18.6797 51.2209 19.0372C51.1953 19.3691 51.1316 19.7522 51.0295 20.1863L35.49 20.2246V16.4708L48.6947 16.4325L46.6662 18.003C46.6152 16.9049 46.411 15.9856 46.0538 15.2451C45.7221 14.5045 45.2245 13.9427 44.5611 13.5597C43.9232 13.1511 43.1322 12.9468 42.1881 12.9468C41.1929 12.9468 40.3254 13.1766 39.5854 13.6363C38.8454 14.0704 38.2713 14.696 37.8631 15.5132C37.4803 16.3048 37.2889 17.2496 37.2889 18.3477C37.2889 19.4713 37.4931 20.4544 37.9013 21.2971C38.3351 22.1143 38.9475 22.7527 39.7385 23.2123C40.5295 23.6464 41.4481 23.8635 42.4943 23.8635C43.4384 23.8635 44.2932 23.7103 45.0587 23.4038C45.8242 23.0719 46.4876 22.5867 47.0489 21.9483L49.9961 24.8977C49.103 25.9447 48.0058 26.7363 46.7045 27.2726C45.4287 27.8088 44.038 28.077 42.5326 28.077Z" fill="#FCFCFD"/>
<path d="M62.2062 28.077C60.4966 28.077 58.9657 27.6556 57.6133 26.8129C56.2609 25.9702 55.1892 24.8211 54.3982 23.3655C53.6327 21.91 53.25 20.2757 53.25 18.4626C53.25 16.624 53.6327 14.9769 54.3982 13.5214C55.1892 12.0658 56.2482 10.9167 57.575 10.074C58.9274 9.23131 60.4711 8.80996 62.2062 8.80996C63.5331 8.80996 64.7196 9.07809 65.7658 9.61435C66.8374 10.1506 67.6922 10.9039 68.3301 11.8743C68.9936 12.8191 69.3508 13.8916 69.4018 15.0918V21.6802C69.3508 22.8804 69.0063 23.9656 68.3684 24.936C67.7305 25.9064 66.8757 26.6725 65.804 27.2343C64.7323 27.7961 63.5331 28.077 62.2062 28.077ZM63.0483 23.4422C63.9924 23.4422 64.8089 23.2379 65.4978 22.8293C66.2123 22.3952 66.7609 21.8078 67.1436 21.0673C67.5519 20.3012 67.756 19.4202 67.756 18.4243C67.756 17.4539 67.5519 16.5985 67.1436 15.8579C66.7609 15.0918 66.2123 14.5045 65.4978 14.0959C64.8089 13.6618 64.0051 13.4448 63.0865 13.4448C62.1424 13.4448 61.3132 13.6618 60.5987 14.0959C59.9098 14.53 59.3612 15.1174 58.9529 15.8579C58.5702 16.5985 58.3788 17.4539 58.3788 18.4243C58.3788 19.4202 58.5702 20.3012 58.9529 21.0673C59.3612 21.8078 59.9225 22.3952 60.637 22.8293C61.3514 23.2379 62.1552 23.4422 63.0483 23.4422ZM72.4638 27.6939H67.4881V22.7144L68.2919 18.1945L67.4498 13.7512V0H72.4638V27.6939Z" fill="#FCFCFD"/>
<path d="M76.8994 27.6939V9.193H81.9517V27.6939H76.8994ZM79.4256 6.20527C78.609 6.20527 77.9329 5.93715 77.397 5.40089C76.8612 4.83909 76.5932 4.14962 76.5932 3.33246C76.5932 2.54084 76.8612 1.86414 77.397 1.30234C77.9329 0.740548 78.609 0.459651 79.4256 0.459651C80.2676 0.459651 80.9438 0.740548 81.4541 1.30234C81.9899 1.86414 82.2579 2.54084 82.2579 3.33246C82.2579 4.14962 81.9899 4.83909 81.4541 5.40089C80.9438 5.93715 80.2676 6.20527 79.4256 6.20527Z" fill="#FCFCFD"/>
<path d="M112.12 25.1935L129.928 7.37143L127.164 4.60501L109.356 22.4271L112.12 25.1935ZM113.13 30.1943L104.359 21.4163L124.666 1.0938C125.374 0.384462 126.216 0.0297938 127.191 0.0297938C128.165 0.0297938 129.007 0.384462 129.716 1.0938L133.437 4.81781C134.146 5.52715 134.5 6.36949 134.5 7.34482C134.5 8.32016 134.146 9.1625 133.437 9.87183L113.13 30.1943ZM104.678 31.9499C104.075 32.0918 103.544 31.9322 103.083 31.4711C102.622 31.0101 102.463 30.4781 102.605 29.8751L104.359 21.4163L113.13 30.1943L104.678 31.9499Z" fill="#FCFCFD"/>
<path d="M91.015 24.7629C91.927 25.2757 92.8967 25.6599 93.924 25.9154C94.9291 26.1583 95.9174 26.2747 96.889 26.2645C97.873 26.232 98.807 26.0542 99.6909 25.7311L98.5693 21.6295C97.6632 21.9401 96.7556 22.0448 95.8465 21.9437C94.9374 21.8426 94.038 21.5419 93.1482 21.0415C92.4363 20.6412 91.9587 20.2408 91.7153 19.8403C91.4496 19.4273 91.4292 19.0205 91.6542 18.6197C91.9042 18.1745 92.2982 17.942 92.8361 17.9223C93.3517 17.89 93.9647 17.9711 94.6751 18.1655C95.3979 18.3377 96.1604 18.5174 96.9625 18.7049C97.7549 18.8575 98.5562 18.942 99.3666 18.9583C100.189 18.9523 100.97 18.7614 101.708 18.3855C102.436 17.9748 103.075 17.2796 103.625 16.3001C104.2 15.276 104.455 14.2479 104.391 13.2158C104.304 12.1711 103.912 11.1747 103.215 10.2263C102.519 9.27793 101.536 8.44725 100.268 7.73424C98.9335 6.98371 97.601 6.54199 96.2708 6.40908C94.9183 6.26366 93.6236 6.45832 92.3868 6.99306L93.5417 11.1135C94.3686 10.7876 95.1685 10.6662 95.9413 10.7493C96.6919 10.8199 97.4232 11.0553 98.135 11.4556C98.7801 11.8183 99.2244 12.2 99.4678 12.6005C99.689 12.9885 99.6996 13.3606 99.4996 13.7168C99.2746 14.1175 98.9106 14.3229 98.4074 14.3328C97.882 14.3303 97.2579 14.243 96.535 14.0708C95.8246 13.8764 95.0733 13.7029 94.2809 13.5502C93.4788 13.3628 92.6712 13.2895 91.8581 13.3302C91.0228 13.3584 90.241 13.5779 89.5129 13.9886C88.7625 14.3868 88.1123 15.0756 87.5623 16.0552C86.6749 17.6358 86.536 19.2126 87.1455 20.7856C87.7676 22.3363 89.0574 23.6621 91.015 24.7629Z" fill="white"/>
</svg>
